#N canvas 0 22 666 639 10;
#X obj 407 355 vcf~;
#X obj 415 290 sig~;
#X floatatom 414 269 5 0 0 0 - - -, f 5;
#X obj 434 218 hsl 85 15 0 127 0 0 empty empty empty -2 -8 0 10 -262130
-1 -1 3900 1;
#X obj 413 245 mtof;
#X obj 360 160 hsl 50 10 0 127 0 0 empty empty empty -2 -8 0 10 -204800
-1 -1 0 1;
#X obj 359 189 mtof;
#X obj 303 390 rev3~ 100 90 3000 20;
#X obj 356 420 *~ 0.5;
#X obj 447 398 *~ 0.5;
#X obj 102 177 hsl 50 10 0 127 0 0 empty empty empty -2 -8 0 10 -204800
-1 -1 0 1;
#X obj 105 114 inlet;
#X obj 358 108 inlet;
#X obj 470 513 outlet~;
#X obj 531 177 line;
#X floatatom 47 209 5 0 0 0 - - -, f 5;
#X obj 115 214 mtof;
#X obj 130 267 osc~;
#X obj 360 230 phasor~;
#X obj 474 254 loadbang;
#X msg 435 316 1;
#X obj 542 298 / 127;
#X obj 535 375 vline~;
#X msg 540 336 \$1 1;
#X obj 486 437 *~;
#X msg 503 147 65 \, 0 1000;
#X obj 230 175 hsl 50 10 0 127 0 0 empty empty empty -2 -8 0 10 -204800
-1 -1 0 1;
#X obj 233 112 inlet;
#X floatatom 175 207 5 0 0 0 - - -, f 5;
#X obj 242 202 mtof;
#X obj 269 259 osc~;
#X obj 80 294 osc~;
#X obj 80 261 + 7;
#X obj 83 339 *~ 0.4;
#X obj 133 320 *~ 0.02;
#X obj 220 271 osc~;
#X obj 223 316 *~ 0.4;
#X obj 318 238 osc~;
#X obj 321 283 *~ 0.4;
#X obj 220 238 + 2;
#X obj 318 205 + 4;
#X obj 272 312 *~ 0.2;
#X obj 359 259 *~ 0.2;
#X connect 0 0 7 0;
#X connect 0 0 9 0;
#X connect 1 0 0 1;
#X connect 2 0 1 0;
#X connect 3 0 4 0;
#X connect 4 0 2 0;
#X connect 5 0 6 0;
#X connect 6 0 18 0;
#X connect 6 0 40 0;
#X connect 7 0 8 0;
#X connect 8 0 24 0;
#X connect 9 0 24 0;
#X connect 10 0 15 0;
#X connect 10 0 16 0;
#X connect 11 0 10 0;
#X connect 12 0 5 0;
#X connect 12 0 25 0;
#X connect 14 0 3 0;
#X connect 14 0 21 0;
#X connect 16 0 17 0;
#X connect 16 0 32 0;
#X connect 17 0 34 0;
#X connect 18 0 42 0;
#X connect 19 0 20 0;
#X connect 20 0 0 2;
#X connect 21 0 23 0;
#X connect 22 0 24 1;
#X connect 23 0 22 0;
#X connect 24 0 13 0;
#X connect 25 0 14 0;
#X connect 26 0 28 0;
#X connect 26 0 29 0;
#X connect 27 0 26 0;
#X connect 29 0 30 0;
#X connect 29 0 39 0;
#X connect 30 0 41 0;
#X connect 31 0 33 0;
#X connect 32 0 31 0;
#X connect 33 0 0 0;
#X connect 34 0 0 0;
#X connect 35 0 36 0;
#X connect 36 0 0 0;
#X connect 37 0 38 0;
#X connect 38 0 0 0;
#X connect 39 0 35 0;
#X connect 40 0 37 0;
#X connect 41 0 0 0;
#X connect 42 0 0 0;
