#N canvas 557 22 782 722 10;
#X obj 90 66 adc~;
#X obj 214 125 metro 100;
#X obj 212 64 bng 15 250 50 0 empty empty empty 17 7 0 10 -262144 -1
-1;
#X obj 53 258 dac~;
#X obj 137 617 tabwrite~ \$0-scope;
#X msg 137 588 bang;
#X obj 181 590 metro 100;
#X obj 181 569 tgl 15 0 empty empty empty 17 7 0 10 -262144 -1 -1 1
1;
#N canvas 0 22 267 183 smooth 0;
#X obj 106 79 vline~;
#X obj 105 106 outlet~;
#X obj 106 26 inlet;
#X obj 106 58 pack 0 20;
#X connect 0 0 1 0;
#X connect 2 0 3 0;
#X connect 3 0 0 0;
#X restore 52 522 pd smooth;
#X floatatom 52 488 8 0 0 1 M - -, f 8;
#X floatatom 136 489 8 0 0 1 T - -, f 8;
#X floatatom 274 489 5 0 999 1 b - -, f 5;
#X floatatom 217 489 5 1 999 1 N - -, f 5;
#X obj 52 403 mtof;
#X floatatom 52 383 5 0 0 0 - - -, f 5;
#X obj 136 404 mtof;
#X floatatom 136 383 5 0 0 0 - - -, f 5;
#X obj 274 508 * 0.01;
#N canvas 0 22 267 183 smooth 0;
#X obj 106 79 vline~;
#X obj 105 106 outlet~;
#X obj 106 26 inlet;
#X obj 106 58 pack 0 20;
#X connect 0 0 1 0;
#X connect 2 0 3 0;
#X connect 3 0 0 0;
#X restore 136 521 pd smooth;
#X obj 52 446 expr 1/$f1;
#X obj 136 446 expr 1/$f1;
#X obj 51 681 dac~;
#X obj 51 660 *~ 0;
#X obj 91 660 dbtorms;
#X obj 94 640 hsl 128 15 0 100 0 0 empty empty empty -2 -8 0 10 -262144
-1 -1 11900 1;
#N canvas 0 22 267 183 smooth 0;
#X obj 106 79 vline~;
#X obj 105 106 outlet~;
#X obj 106 26 inlet;
#X obj 106 58 pack 0 20;
#X connect 0 0 1 0;
#X connect 2 0 3 0;
#X connect 3 0 0 0;
#X restore 274 529 pd smooth;
#X floatatom 52 425 5 0 0 0 - - -, f 5;
#X floatatom 136 428 5 0 0 0 - - -, f 5;
#X msg 52 358 154;
#X msg 136 358 72;
#X text 172 357 Bug: certain combos of M and T give artifacts.;
#N canvas 0 22 450 300 (subpatch) 0;
#X array \$0-scope 882 float 0;
#X coords 0 1 881 -1 200 140 1;
#X restore 402 522 graph;
#X msg 390 455 \; pd dsp \$1;
#X obj 390 434 tgl 15 0 empty empty empty 17 7 0 10 -262144 -1 -1 1
1;
#X obj 51 577 vosim-;
#X obj 109 178 tabwrite~ array55;
#N canvas 0 22 450 278 (subpatch) 0;
#X array array55 100 float 3;
#A 0 0 0 0 0 0 0 0 0 0 0 0 0 0 0 0 0 0 0 0 0 0 0 0 0 0 0 0 0 0 0 0
0 0 0 0 0 0 0 0 0 0 0 0 0 0 0 0 0 0 0 0 0 0 0 0 0 0 0 0 0 0 0 0 0 0
0 0 0 0 0 0 0 0 0 0 0 0 0 0 0 0 0 0 0 0 0 0 0 0 0 0 0 0 0 0 0 0 0 0
0;
#X coords 0 1 100 -1 200 140 1;
#X restore 341 149 graph;
#X obj 136 90 nbx 5 14 -1e+37 1e+37 0 0 empty empty empty 0 -8 0 10
-262144 -1 -1 92 256;
#X msg 229 390 49;
#X msg 328 457 20;
#X obj 142 54 hsl 128 15 0 127 0 0 empty empty empty -2 -8 0 10 -262144
-1 -1 0 1;
#X obj 98 127 *~;
#X connect 0 0 41 0;
#X connect 1 0 35 0;
#X connect 2 0 1 0;
#X connect 5 0 4 0;
#X connect 6 0 4 0;
#X connect 7 0 6 0;
#X connect 8 0 34 0;
#X connect 9 0 8 0;
#X connect 10 0 18 0;
#X connect 11 0 17 0;
#X connect 12 0 34 2;
#X connect 13 0 26 0;
#X connect 14 0 13 0;
#X connect 15 0 27 0;
#X connect 16 0 15 0;
#X connect 17 0 25 0;
#X connect 18 0 34 1;
#X connect 19 0 9 0;
#X connect 20 0 10 0;
#X connect 22 0 21 0;
#X connect 22 0 21 1;
#X connect 23 0 22 1;
#X connect 24 0 23 0;
#X connect 25 0 34 3;
#X connect 26 0 19 0;
#X connect 27 0 20 0;
#X connect 28 0 14 0;
#X connect 29 0 16 0;
#X connect 33 0 32 0;
#X connect 34 0 4 0;
#X connect 34 0 22 0;
#X connect 37 0 41 0;
#X connect 38 0 16 0;
#X connect 39 0 11 0;
#X connect 40 0 41 1;
#X connect 41 0 34 3;
#X connect 41 0 35 0;
