#N canvas 141 41 662 604 10;
#X obj 179 174 hsl 50 10 0 127 0 0 empty empty empty -2 -8 0 10 -204800
-1 -1 0 1;
#X obj 178 215 mtof;
#X obj 159 385 rev3~ 100 90 3000 20;
#X obj 158 412 *~ 0.5;
#X obj 187 119 inlet;
#X obj 326 508 outlet~;
#X obj 179 244 phasor~;
#X obj 336 110 inlet;
#X obj 303 393 *~ 0.5;
#X obj 342 432 *~;
#X msg 328 320 1;
#X obj 263 350 vcf~;
#X obj 328 294 loadbang;
#X obj 418 384 vline~;
#X obj 419 261 / 127;
#X floatatom 333 212 5 0 0 0 - - -, f 5;
#X obj 335 168 line;
#X msg 419 359 \$1 1;
#X text 461 373 gets rid of click;
#X obj 275 252 mtof;
#X obj 274 281 sig~;
#X obj 475 468 snapshot~;
#X floatatom 474 503 5 0 0 0 - - -, f 5;
#X obj 493 440 metro 10;
#X obj 493 419 tgl 15 0 empty empty empty 17 7 0 10 -262144 -1 -1 0
1;
#X msg 336 143 65 \, 0 6000;
#X obj 87 167 hsl 50 10 0 127 0 0 empty empty empty -2 -8 0 10 -204800
-1 -1 0 1;
#X obj 90 104 inlet;
#X floatatom 32 199 5 0 0 0 - - -, f 5;
#X obj 100 204 mtof;
#X obj 115 257 osc~;
#X obj 65 284 osc~;
#X obj 68 329 *~ 0.4;
#X obj 118 310 *~ 0.02;
#X obj 65 251 + 4;
#X obj 178 291 *~ 0.2;
#X connect 0 0 1 0;
#X connect 1 0 6 0;
#X connect 2 0 3 0;
#X connect 3 0 9 0;
#X connect 4 0 0 0;
#X connect 6 0 35 0;
#X connect 7 0 25 0;
#X connect 8 0 9 0;
#X connect 9 0 5 0;
#X connect 10 0 11 2;
#X connect 11 0 2 0;
#X connect 11 0 8 0;
#X connect 12 0 10 0;
#X connect 13 0 9 1;
#X connect 13 0 21 0;
#X connect 14 0 17 0;
#X connect 16 0 14 0;
#X connect 16 0 15 0;
#X connect 16 0 19 0;
#X connect 17 0 13 0;
#X connect 19 0 20 0;
#X connect 20 0 11 1;
#X connect 21 0 22 0;
#X connect 23 0 21 0;
#X connect 24 0 23 0;
#X connect 25 0 16 0;
#X connect 26 0 28 0;
#X connect 26 0 29 0;
#X connect 27 0 26 0;
#X connect 29 0 30 0;
#X connect 29 0 34 0;
#X connect 30 0 33 0;
#X connect 31 0 32 0;
#X connect 32 0 11 0;
#X connect 33 0 11 0;
#X connect 34 0 31 0;
#X connect 35 0 11 0;
