#N canvas 31 22 1321 724 10;
#X obj 444 431 bng 15 250 50 0 empty empty empty 17 7 0 10 -262144
-1 -1;
#X obj 406 432 bng 15 250 50 0 empty empty empty 17 7 0 10 -262144
-1 -1;
#X obj 598 637 vsl 15 85 0 127 0 0 empty empty empty 0 -9 0 10 -260097
-1 -1 0 1;
#X floatatom 536 776 5 0 0 0 - - -, f 5;
#X obj 537 745 / 127;
#X obj 414 792 dac~;
#X obj 418 757 *~;
#X floatatom -132 771 5 0 0 0 - - -, f 5;
#X obj -131 740 / 127;
#X obj -250 797 dac~;
#X obj -244 729 *~;
#X obj 59 669 vsl 15 85 0 127 0 0 empty empty empty 0 -9 0 10 -4160
-1 -1 0 1;
#X obj -377 319 f;
#X obj -342 319 + 1;
#X floatatom -363 399 5 0 0 0 - - -, f 5;
#X obj -215 383 select 1 2 3 4 5 6 7 8;
#X obj -377 374 + 1;
#X obj -248 421 bng 15 250 50 0 empty empty empty 17 7 0 10 -262144
-1 -1;
#X obj -218 421 bng 15 250 50 0 empty empty empty 17 7 0 10 -262144
-1 -1;
#X obj -191 422 bng 15 250 50 0 empty empty empty 17 7 0 10 -262144
-1 -1;
#X obj -164 423 bng 15 250 50 0 empty empty empty 17 7 0 10 -262144
-1 -1;
#X obj -136 423 bng 15 250 50 0 empty empty empty 17 7 0 10 -262144
-1 -1;
#X obj -108 423 bng 15 250 50 0 empty empty empty 17 7 0 10 -262144
-1 -1;
#X obj -79 423 bng 15 250 50 0 empty empty empty 17 7 0 10 -262144
-1 -1;
#X obj -50 424 bng 15 250 50 0 empty empty empty 17 7 0 10 -262144
-1 -1;
#X obj -249 328 metro;
#X obj -143 300 tgl 15 0 empty empty empty 17 7 0 10 -262144 -1 -1
0 1;
#X floatatom 1101 65 5 0 0 0 - - -, f 5;
#X obj 1102 34 / 127;
#X obj 1054 85 dac~;
#X obj 1060 17 *~;
#X obj 1275 -1 vsl 15 85 0 127 0 0 empty empty empty 0 -9 0 10 -260097
-1 -1 0 1;
#X obj 1304 -462 f;
#X obj 1340 -462 + 1;
#X floatatom 1268 -446 5 0 0 0 - - -, f 5;
#X obj 1254 -471 + 1;
#X obj 1193 -355 bng 15 250 50 0 empty empty empty 17 7 0 10 -262144
-1 -1;
#X obj 1223 -355 bng 15 250 50 0 empty empty empty 17 7 0 10 -262144
-1 -1;
#X obj 1250 -354 bng 15 250 50 0 empty empty empty 17 7 0 10 -262144
-1 -1;
#X obj 1277 -353 bng 15 250 50 0 empty empty empty 17 7 0 10 -262144
-1 -1;
#X obj 1187 -521 tgl 15 0 empty empty empty 17 7 0 10 -262144 -1 -1
0 1;
#X obj 276 161 dac~;
#X obj 276 124 *~ 0.3;
#X obj 18 160 dac~;
#X obj 18 123 *~ 0.3;
#X obj 144 160 dac~;
#X obj 144 123 *~ 0.3;
#X obj 69 -255 hsl 85 15 0 127 0 0 empty empty empty -2 -8 0 10 -262130
-1 -1 0 1;
#X obj 133 -161 dac~;
#X obj 133 -198 *~ 0.3;
#X obj 172 -267 mtof;
#X obj 237 -283 hsl 85 15 0 127 0 0 empty empty empty -2 -8 0 10 -262130
-1 -1 0 1;
#X obj 1030 -260 vsl 15 128 0 127 0 0 empty empty empty 0 -9 0 10 -262144
-1 -1 0 1;
#X obj 1047 -260 vsl 15 128 0 127 0 0 empty empty empty 0 -9 0 10 -262144
-1 -1 0 1;
#X obj 1085 -257 vsl 15 128 0 127 0 0 empty empty empty 0 -9 0 10 -262144
-1 -1 0 1;
#X obj 1104 -258 vsl 15 128 0 127 0 0 empty empty empty 0 -9 0 10 -262144
-1 -1 0 1;
#X floatatom 985 -117 5 0 0 0 - - -, f 5;
#X floatatom 1021 -114 5 0 0 0 - - -, f 5;
#X floatatom 1052 -87 5 0 0 0 - - -, f 5;
#X floatatom 1083 -80 5 0 0 0 - - -, f 5;
#X msg 998 -302 56;
#X obj 1002 -344 bng 15 250 50 0 empty empty empty 17 7 0 10 -262144
-1 -1;
#X obj -221 613 unpack f f;
#X obj -154 613 unpack f f;
#X obj -117 630 unpack f f;
#X obj -84 648 unpack f f;
#X obj -51 666 unpack f f;
#X obj -255 630 unpack f f;
#X obj -291 648 unpack f f;
#X obj -318 668 unpack f f;
#X msg -345 601 43 65;
#X msg -304 590 57 48;
#X msg -256 570 62 38;
#X msg -211 550 40 64;
#X msg -113 548 55 52;
#X msg -70 569 81 69;
#X msg -28 588 40 76;
#X msg 17 601 57 40;
#X obj -6 256 random 100;
#X obj 34 339 random 600;
#X obj -49 334 random 600;
#X obj 35 359 + 100;
#X obj -48 361 + 300;
#X floatatom -51 393 5 0 0 0 - - -, f 5;
#X floatatom 36 395 5 0 0 0 - - -, f 5;
#X obj -27 312 bng 15 250 50 0 empty empty empty 17 7 0 10 -262144
-1 -1;
#X obj 33 311 bng 15 250 50 0 empty empty empty 17 7 0 10 -262144 -1
-1;
#X obj -8 284 moses 80;
#X msg -319 468 set 66 40;
#X msg -246 464 set 74 53;
#X msg -2 472 set 76 49;
#X msg -419 467 set 76 49;
#X msg -393 541 set 43 65;
#X msg -321 546 set 57 48;
#X msg -274 522 set 62 38;
#X msg -210 516 set 40 64;
#X msg -142 517 set 55 52;
#X msg -81 522 set 81 69;
#X msg -40 539 set 40 76;
#X msg 8 564 set 57 40;
#X text -309 359 CHECK OUT THE SOUNDS BEFORE REHEARSAL;
#X msg -69 469 set 57 42;
#X msg 51 489 set 72 62;
#X msg -143 459 set 76 62;
#X msg -354 447 set 67 52;
#X obj 1228 -253 vsl 15 128 0 127 0 0 empty empty empty 0 -9 0 10 -262144
-1 -1 0 1;
#X obj 1146 -258 vsl 15 128 0 127 0 0 empty empty empty 0 -9 0 10 -262144
-1 -1 0 1;
#X obj 1165 -257 vsl 15 128 0 127 0 0 empty empty empty 0 -9 0 10 -262144
-1 -1 0 1;
#X obj 1212 -254 vsl 15 128 0 127 0 0 empty empty empty 0 -9 0 10 -262144
-1 -1 0 1;
#X obj 1254 -498 % 4;
#X obj 1253 -398 select 1 2 3 4;
#X floatatom 1124 -111 5 0 0 0 - - -, f 5;
#X floatatom 1143 -80 5 0 0 0 - - -, f 5;
#X floatatom 1204 -85 5 0 0 0 - - -, f 5;
#X floatatom 1219 -57 5 0 0 0 - - -, f 5;
#X obj -377 347 % 8;
#X obj 279 606 76 62;
#X obj 346 523 vsl 15 128 0 127 0 0 empty empty empty 0 -9 0 10 -262144
-1 -1 0 1;
#X obj 372 524 vsl 15 128 0 127 0 0 empty empty empty 0 -9 0 10 -262144
-1 -1 0 1;
#X floatatom 382 691 5 0 0 0 - - -, f 5;
#X floatatom 409 671 5 0 0 0 - - -, f 5;
#X msg 227 537 56;
#X msg 264 517 97;
#X obj 245 513 bng 15 250 50 0 empty empty empty 17 7 0 10 -262144
-1 -1;
#X obj 469 517 vsl 15 128 0 127 0 0 empty empty empty 0 -9 0 10 -262144
-1 -1 0 1;
#X obj 493 518 vsl 15 128 0 127 0 0 empty empty empty 0 -9 0 10 -262144
-1 -1 0 1;
#X floatatom 453 682 5 0 0 0 - - -, f 5;
#X floatatom 487 699 5 0 0 0 - - -, f 5;
#X obj 626 323 bng 15 250 50 0 empty empty empty 17 7 0 10 -262144
-1 -1;
#X obj 295 355 bng 15 250 50 0 empty empty empty 17 7 0 10 -262144
-1 -1;
#X msg 264 396 76;
#X msg 280 410 62;
#X msg 603 356 76;
#X obj 583 467 bng 15 250 50 0 empty empty empty 17 7 0 10 -262144
-1 -1;
#X msg 553 485 64;
#X msg 598 486 40;
#X msg 302 425 38;
#X msg 271 548 78;
#X obj 395 526 vsl 15 128 0 127 0 0 empty empty empty 0 -9 0 10 -262144
-1 -1 0 1;
#X obj 449 516 vsl 15 128 0 127 0 0 empty empty empty 0 -9 0 10 -262144
-1 -1 0 1;
#X msg 572 504 81;
#X obj 496 306 tgl 15 0 empty empty empty 17 7 0 10 -262144 -1 -1 0
1;
#X obj 419 398 select 1 2;
#X obj 371 293 f;
#X obj 409 293 + 1;
#X obj 403 353 + 1;
#X msg 606 374 66;
#X msg 629 355 42;
#X obj 411 246 metro 2000;
#X obj 1294 -506 metro 1000;
#X obj 402 318 % 2;
#X obj 48 33 hsl 128 15 0 127 0 0 empty empty empty -2 -8 0 10 -258113
-1 -1 0 1;
#X obj 276 5 vsl 10 50 0 10 0 0 empty empty bend 0 -9 0 10 -258113
-1 -1 1960 1;
#X obj 19 92 synth2 62 38 76;
#X obj 145 92 synth2 57 42 81;
#X obj 277 93 synth2 33 40 67;
#X obj 133 -229 synth2 67 40 67;
#X obj 418 723 3chord;
#X obj 1066 -25 copysynth1, f 33;
#X obj -257 684 synth1, f 33;
#X msg 1039 -301 48;
#X obj 1045 -379 bng 15 250 50 0 empty empty empty 17 7 0 10 -262144
-1 -1;
#X msg 1042 -336 90;
#X msg 1083 -335 39;
#X obj 1080 -429 bng 15 250 50 0 empty empty empty 17 7 0 10 -262144
-1 -1;
#X obj 1133 -462 bng 15 250 50 0 empty empty empty 17 7 0 10 -262144
-1 -1;
#X msg 1077 -386 75;
#X msg 1118 -385 57;
#X msg 1130 -419 97;
#X msg 1171 -418 44;
#X text -362 -284 BASS TONE FOR MIDDLE SECTION;
#X obj 678 -5 ctlin;
#X floatatom 686 22 5 0 0 0 - - -, f 5;
#X floatatom 687 47 5 0 0 0 - - -, f 5;
#X obj 472 -296 ctlin 8;
#X obj 545 -287 vsl 15 128 0 127 0 0 empty empty empty 0 -9 0 10 -262144
-1 -1 0 1;
#X obj 568 -139 notein;
#X floatatom 550 -102 5 0 0 0 - - -, f 5;
#X floatatom 588 -100 5 0 0 0 - - -, f 5;
#X obj 568 -11 notein;
#X obj 567 22 stripnote;
#X obj 558 92 bng 15 250 50 0 empty empty empty 17 7 0 10 -262144 -1
-1;
#X obj 559 132 tgl 15 0 empty empty empty 17 7 0 10 -262144 -1 -1 0
1;
#X obj -157 173 notein;
#X obj -158 206 stripnote;
#X obj -158 233 route 10;
#X obj -163 267 bng 15 250 50 0 empty empty empty 17 7 0 10 -4160 -1
-1;
#X obj 71 628 ctlin 0;
#X obj -181 793 vline~;
#X msg -180 768 \$1 1;
#X text -138 782 gets rid of click;
#X obj 542 225 notein;
#X obj 541 258 stripnote;
#X obj 536 319 bng 15 250 50 0 empty empty empty 17 7 0 10 -260097
-1 -1;
#X obj 481 767 vline~;
#X msg 482 742 \$1 1;
#X text 612 250 second button top row;
#X text -93 223 first button top row;
#X text 81 690 slider 1 top;
#X obj 563 58 route 25;
#X obj -497 -286 notein;
#X obj -498 -253 stripnote;
#X obj -488 -196 bng 15 250 50 0 empty empty empty 17 7 0 10 -159808
-1 -1;
#X obj -408 -686 notein;
#X obj -409 -653 stripnote;
#X obj -409 -626 route 42;
#X text -336 -603 LAST SECTION POPING WATER;
#X text -327 -645 button 1 row 3;
#X obj -440 -16 readsf~;
#X obj -484 -162 tgl 15 0 empty empty empty 17 7 0 10 -262144 -1 -1
0 1;
#X obj -482 -138 sel 0 1;
#X obj -484 -74 delay 30;
#X msg -519 -76 0;
#X obj -470 -104 t b b;
#X msg -481 -47 1;
#X obj -407 -592 bng 15 250 50 0 empty empty empty 17 7 0 10 -159808
-1 -1;
#X obj -356 -559 readsf~;
#X obj -403 -558 tgl 15 0 empty empty empty 17 7 0 10 -262144 -1 -1
0 1;
#X obj -401 -534 sel 0 1;
#X obj -403 -470 delay 30;
#X msg -438 -472 0;
#X obj -389 -500 t b b;
#X msg -400 -443 1;
#X obj 28 -683 notein;
#X obj 27 -650 stripnote;
#X obj 29 -589 bng 15 250 50 0 empty empty empty 17 7 0 10 -159808
-1 -1;
#X obj 118 -440 dac~;
#X obj 125 -531 readsf~;
#X obj 33 -555 tgl 15 0 empty empty empty 17 7 0 10 -262144 -1 -1 0
1;
#X obj 35 -531 sel 0 1;
#X obj 33 -467 delay 30;
#X msg -2 -469 0;
#X obj 47 -497 t b b;
#X msg 36 -440 1;
#X text 145 -575 flute;
#X obj 27 -623 route 44;
#X text 109 -642 button 2 row 3;
#X msg 133 -596 open sound/flutelong.wav;
#X msg -348 -624 open sound/waterpop.wav;
#X obj 360 -685 notein;
#X obj 359 -652 stripnote;
#X obj 361 -591 bng 15 250 50 0 empty empty empty 17 7 0 10 -159808
-1 -1;
#X obj 450 -442 dac~;
#X obj 457 -533 readsf~;
#X obj 365 -557 tgl 15 0 empty empty empty 17 7 0 10 -262144 -1 -1
0 1;
#X obj 367 -533 sel 0 1;
#X obj 365 -469 delay 30;
#X msg 330 -471 0;
#X obj 379 -499 t b b;
#X msg 368 -442 1;
#X text 477 -577 flute;
#X obj 359 -625 route 45;
#X msg 465 -598 open sound/fluteshort.wav;
#X text 441 -644 row 3 button 3;
#X obj 457 -498 *~ 0.2;
#X obj 125 -496 *~ 0.2;
#X obj -491 -221 route 15;
#X text -417 -246 row 1 button 4;
#X obj -340 -16 dac~;
#X floatatom -307 -129 5 0 0 0 - - -, f 5;
#X obj -307 -154 / 127;
#X obj -311 -85 vline~;
#X msg -310 -110 \$1 1;
#X obj -317 -57 *~;
#X obj -295 -180 hsl 128 15 0 127 0 0 empty empty empty -2 -8 0 10
-4034 -1 -1 0 1;
#X obj -327 -382 dac~;
#X floatatom -294 -495 5 0 0 0 - - -, f 5;
#X obj -294 -520 / 127;
#X obj -298 -451 vline~;
#X msg -297 -476 \$1 1;
#X obj -304 -423 *~;
#X obj -282 -546 hsl 128 15 0 127 0 0 empty empty empty -2 -8 0 10
-4034 -1 -1 0 1;
#X msg 130 448 90;
#X floatatom -48 77 5 0 0 0 - - -, f 5;
#X floatatom 638 756 5 0 0 0 - - -, f 5;
#X msg 666 507 80;
#X obj 244 -63 loadbang;
#X floatatom 305 69 5 0 0 0 - - -, f 5;
#X msg 322 -39 4;
#X msg -356 -168 110;
#X msg -394 -212 open sound/fix2.wav;
#X obj 72 -316 ctlin 8;
#X obj 219 -334 ctlin 9;
#X text 100 4 slider 3 top;
#X obj 541 285 route 12;
#X text 611 565 slider 2 top;
#X obj 66 -19 ctlin 6;
#X obj 636 597 ctlin 2;
#X obj 1108 -644 notein;
#X obj 1094 -612 stripnote;
#X obj 1111 -539 bng 15 250 50 0 empty empty empty 17 7 0 10 -262144
-1 -1;
#X obj 1100 -583 route 13;
#X text -183 -461 ROW 3;
#X msg -343 -534 69;
#X connect 0 0 124 0;
#X connect 0 0 125 0;
#X connect 0 0 139 0;
#X connect 1 0 118 0;
#X connect 1 0 117 0;
#X connect 1 0 138 0;
#X connect 2 0 4 0;
#X connect 2 0 274 0;
#X connect 4 0 3 0;
#X connect 4 0 195 0;
#X connect 6 0 5 0;
#X connect 6 0 5 1;
#X connect 8 0 7 0;
#X connect 8 0 189 0;
#X connect 10 0 9 0;
#X connect 10 0 9 1;
#X connect 11 0 8 0;
#X connect 12 0 13 0;
#X connect 12 0 115 0;
#X connect 13 0 12 1;
#X connect 15 0 17 0;
#X connect 15 1 18 0;
#X connect 15 2 19 0;
#X connect 15 3 20 0;
#X connect 15 4 21 0;
#X connect 15 5 22 0;
#X connect 15 6 23 0;
#X connect 15 7 24 0;
#X connect 16 0 14 0;
#X connect 16 0 15 0;
#X connect 17 0 70 0;
#X connect 18 0 71 0;
#X connect 19 0 72 0;
#X connect 20 0 73 0;
#X connect 21 0 74 0;
#X connect 22 0 75 0;
#X connect 23 0 76 0;
#X connect 24 0 77 0;
#X connect 25 0 12 0;
#X connect 25 0 78 0;
#X connect 26 0 25 0;
#X connect 28 0 27 0;
#X connect 28 0 30 1;
#X connect 30 0 29 0;
#X connect 30 0 29 1;
#X connect 31 0 28 0;
#X connect 32 0 33 0;
#X connect 32 0 109 0;
#X connect 33 0 32 1;
#X connect 35 0 34 0;
#X connect 35 0 110 0;
#X connect 36 0 52 0;
#X connect 36 0 53 0;
#X connect 36 0 158 2;
#X connect 37 0 54 0;
#X connect 37 0 55 0;
#X connect 37 0 158 2;
#X connect 38 0 106 0;
#X connect 38 0 107 0;
#X connect 38 0 158 2;
#X connect 39 0 108 0;
#X connect 39 0 105 0;
#X connect 39 0 158 2;
#X connect 40 0 149 0;
#X connect 42 0 41 0;
#X connect 42 0 41 1;
#X connect 44 0 43 0;
#X connect 44 0 43 1;
#X connect 46 0 45 0;
#X connect 46 0 45 1;
#X connect 47 0 156 0;
#X connect 49 0 48 0;
#X connect 49 0 48 1;
#X connect 50 0 156 1;
#X connect 51 0 50 0;
#X connect 52 0 56 0;
#X connect 52 0 158 0;
#X connect 53 0 57 0;
#X connect 53 0 158 1;
#X connect 54 0 58 0;
#X connect 54 0 158 0;
#X connect 55 0 59 0;
#X connect 55 0 158 1;
#X connect 60 0 52 0;
#X connect 61 0 60 0;
#X connect 61 0 160 0;
#X connect 62 0 159 0;
#X connect 62 1 159 1;
#X connect 63 0 159 0;
#X connect 63 1 159 1;
#X connect 64 0 159 0;
#X connect 64 1 159 1;
#X connect 65 0 159 0;
#X connect 65 1 159 1;
#X connect 66 0 159 0;
#X connect 66 1 159 1;
#X connect 67 0 159 0;
#X connect 67 1 159 1;
#X connect 68 0 159 0;
#X connect 68 1 159 1;
#X connect 69 0 159 0;
#X connect 69 1 159 1;
#X connect 70 0 69 0;
#X connect 71 0 68 0;
#X connect 72 0 67 0;
#X connect 73 0 62 0;
#X connect 74 0 63 0;
#X connect 75 0 64 0;
#X connect 76 0 65 0;
#X connect 77 0 66 0;
#X connect 78 0 87 0;
#X connect 79 0 81 0;
#X connect 80 0 82 0;
#X connect 81 0 84 0;
#X connect 82 0 83 0;
#X connect 83 0 25 1;
#X connect 84 0 25 1;
#X connect 85 0 80 0;
#X connect 86 0 79 0;
#X connect 87 0 85 0;
#X connect 87 1 86 0;
#X connect 88 0 72 0;
#X connect 89 0 73 0;
#X connect 90 0 76 0;
#X connect 91 0 70 0;
#X connect 92 0 70 0;
#X connect 93 0 71 0;
#X connect 94 0 72 0;
#X connect 95 0 73 0;
#X connect 96 0 74 0;
#X connect 97 0 75 0;
#X connect 98 0 76 0;
#X connect 99 0 77 0;
#X connect 101 0 75 0;
#X connect 102 0 77 0;
#X connect 103 0 74 0;
#X connect 104 0 71 0;
#X connect 105 0 114 0;
#X connect 105 0 158 1;
#X connect 106 0 111 0;
#X connect 106 0 158 0;
#X connect 107 0 112 0;
#X connect 107 0 158 1;
#X connect 108 0 113 0;
#X connect 108 0 158 0;
#X connect 109 0 35 0;
#X connect 110 0 36 0;
#X connect 110 1 37 0;
#X connect 110 2 38 0;
#X connect 110 3 39 0;
#X connect 115 0 16 0;
#X connect 117 0 119 0;
#X connect 117 0 157 0;
#X connect 118 0 120 0;
#X connect 118 0 157 1;
#X connect 121 0 117 0;
#X connect 122 0 118 0;
#X connect 123 0 121 0;
#X connect 123 0 122 0;
#X connect 123 0 137 0;
#X connect 124 0 126 0;
#X connect 124 0 157 1;
#X connect 125 0 127 0;
#X connect 125 0 157 2;
#X connect 128 0 132 0;
#X connect 128 0 147 0;
#X connect 129 0 130 0;
#X connect 129 0 131 0;
#X connect 129 0 136 0;
#X connect 130 0 117 0;
#X connect 131 0 118 0;
#X connect 132 0 139 0;
#X connect 133 0 134 0;
#X connect 133 0 135 0;
#X connect 133 0 140 0;
#X connect 134 0 139 0;
#X connect 135 0 124 0;
#X connect 136 0 138 0;
#X connect 137 0 138 0;
#X connect 138 0 157 2;
#X connect 139 0 157 0;
#X connect 140 0 125 0;
#X connect 141 0 148 0;
#X connect 141 0 129 0;
#X connect 141 0 128 0;
#X connect 142 0 1 0;
#X connect 142 1 0 0;
#X connect 143 0 144 0;
#X connect 143 0 150 0;
#X connect 144 0 143 1;
#X connect 145 0 142 0;
#X connect 146 0 124 0;
#X connect 147 0 125 0;
#X connect 148 0 143 0;
#X connect 149 0 32 0;
#X connect 150 0 145 0;
#X connect 151 0 153 0;
#X connect 151 0 154 0;
#X connect 151 0 155 0;
#X connect 151 0 273 0;
#X connect 152 0 153 1;
#X connect 152 0 154 1;
#X connect 152 0 277 0;
#X connect 153 0 44 0;
#X connect 154 0 46 0;
#X connect 155 0 42 0;
#X connect 156 0 49 0;
#X connect 157 0 6 0;
#X connect 158 0 30 0;
#X connect 159 0 10 0;
#X connect 160 0 53 0;
#X connect 161 0 162 0;
#X connect 161 0 163 0;
#X connect 162 0 54 0;
#X connect 163 0 55 0;
#X connect 164 0 166 0;
#X connect 164 0 167 0;
#X connect 165 0 168 0;
#X connect 165 0 169 0;
#X connect 166 0 106 0;
#X connect 167 0 107 0;
#X connect 168 0 108 0;
#X connect 169 0 105 0;
#X connect 171 0 173 0;
#X connect 171 1 172 0;
#X connect 174 0 175 0;
#X connect 176 0 177 0;
#X connect 176 1 178 0;
#X connect 179 0 180 0;
#X connect 179 1 180 1;
#X connect 180 0 199 0;
#X connect 181 0 182 0;
#X connect 183 0 184 0;
#X connect 183 1 184 1;
#X connect 184 0 185 0;
#X connect 185 0 186 0;
#X connect 186 0 26 0;
#X connect 186 0 272 0;
#X connect 187 0 11 0;
#X connect 188 0 10 1;
#X connect 189 0 188 0;
#X connect 191 0 192 0;
#X connect 191 1 192 1;
#X connect 192 0 284 0;
#X connect 193 0 141 0;
#X connect 193 0 275 0;
#X connect 194 0 6 1;
#X connect 195 0 194 0;
#X connect 199 0 181 0;
#X connect 200 0 201 0;
#X connect 200 1 201 1;
#X connect 201 0 256 0;
#X connect 202 0 209 0;
#X connect 203 0 204 0;
#X connect 203 1 204 1;
#X connect 204 0 205 0;
#X connect 205 0 215 0;
#X connect 208 0 263 0;
#X connect 208 1 209 0;
#X connect 209 0 210 0;
#X connect 210 0 212 0;
#X connect 210 1 213 0;
#X connect 211 0 214 0;
#X connect 211 0 279 0;
#X connect 212 0 208 0;
#X connect 213 0 211 0;
#X connect 213 1 280 0;
#X connect 214 0 208 0;
#X connect 215 0 217 0;
#X connect 216 0 270 0;
#X connect 216 1 217 0;
#X connect 217 0 218 0;
#X connect 218 0 220 0;
#X connect 218 1 221 0;
#X connect 219 0 222 0;
#X connect 219 0 293 0;
#X connect 220 0 216 0;
#X connect 221 0 219 0;
#X connect 221 1 238 0;
#X connect 222 0 216 0;
#X connect 223 0 224 0;
#X connect 223 1 224 1;
#X connect 224 0 235 0;
#X connect 225 0 228 0;
#X connect 227 0 255 0;
#X connect 227 1 228 0;
#X connect 228 0 229 0;
#X connect 229 0 231 0;
#X connect 229 1 232 0;
#X connect 230 0 233 0;
#X connect 231 0 227 0;
#X connect 232 0 230 0;
#X connect 232 1 237 0;
#X connect 233 0 227 0;
#X connect 235 0 225 0;
#X connect 237 0 227 0;
#X connect 238 0 216 0;
#X connect 239 0 240 0;
#X connect 239 1 240 1;
#X connect 240 0 251 0;
#X connect 241 0 244 0;
#X connect 243 0 254 0;
#X connect 243 1 244 0;
#X connect 244 0 245 0;
#X connect 245 0 247 0;
#X connect 245 1 248 0;
#X connect 246 0 249 0;
#X connect 247 0 243 0;
#X connect 248 0 246 0;
#X connect 248 1 252 0;
#X connect 249 0 243 0;
#X connect 251 0 241 0;
#X connect 252 0 243 0;
#X connect 254 0 242 0;
#X connect 254 0 242 1;
#X connect 255 0 226 0;
#X connect 255 0 226 1;
#X connect 256 0 202 0;
#X connect 260 0 259 0;
#X connect 260 0 262 0;
#X connect 261 0 263 1;
#X connect 262 0 261 0;
#X connect 263 0 258 0;
#X connect 263 0 258 1;
#X connect 264 0 260 0;
#X connect 267 0 266 0;
#X connect 267 0 269 0;
#X connect 268 0 270 1;
#X connect 269 0 268 0;
#X connect 270 0 265 0;
#X connect 270 0 265 1;
#X connect 271 0 267 0;
#X connect 272 0 11 0;
#X connect 275 0 2 0;
#X connect 276 0 278 0;
#X connect 278 0 152 0;
#X connect 279 0 264 0;
#X connect 280 0 208 0;
#X connect 281 0 47 0;
#X connect 282 0 51 0;
#X connect 284 0 193 0;
#X connect 286 0 151 0;
#X connect 287 0 2 0;
#X connect 288 0 289 0;
#X connect 288 1 289 1;
#X connect 289 0 291 0;
#X connect 290 0 40 0;
#X connect 290 0 165 0;
#X connect 290 0 164 0;
#X connect 290 0 161 0;
#X connect 290 0 61 0;
#X connect 291 0 290 0;
#X connect 293 0 271 0;
