#N canvas 510 61 659 444 10;
#X obj 389 154 adc~;
#X obj 213 239 vosim-;
#N canvas 0 22 267 183 smooth 0;
#X obj 106 79 vline~;
#X obj 105 106 outlet~;
#X obj 106 26 inlet;
#X obj 106 58 pack 0 20;
#X connect 0 0 1 0;
#X connect 2 0 3 0;
#X connect 3 0 0 0;
#X restore 95 193 pd smooth;
#X floatatom 95 159 8 0 0 1 M - -, f 8;
#X floatatom 179 160 8 0 0 1 T - -, f 8;
#X floatatom 317 160 5 0 999 1 b - -, f 5;
#X floatatom 260 159 5 1 999 1 N - -, f 5;
#X obj 95 74 mtof;
#X floatatom 95 54 5 0 0 0 - - -, f 5;
#X obj 179 75 mtof;
#X floatatom 179 54 5 0 0 0 - - -, f 5;
#X obj 317 179 * 0.01;
#N canvas 0 22 267 183 smooth 0;
#X obj 106 79 vline~;
#X obj 105 106 outlet~;
#X obj 106 26 inlet;
#X obj 106 58 pack 0 20;
#X connect 0 0 1 0;
#X connect 2 0 3 0;
#X connect 3 0 0 0;
#X restore 179 192 pd smooth;
#X obj 95 117 expr 1/$f1;
#X obj 179 117 expr 1/$f1;
#N canvas 0 22 267 183 smooth 0;
#X obj 106 79 vline~;
#X obj 105 106 outlet~;
#X obj 106 26 inlet;
#X obj 106 58 pack 0 20;
#X connect 0 0 1 0;
#X connect 2 0 3 0;
#X connect 3 0 0 0;
#X restore 317 200 pd smooth;
#X floatatom 95 96 5 0 0 0 - - -, f 5;
#X floatatom 179 99 5 0 0 0 - - -, f 5;
#X msg 95 29 154;
#X msg 179 29 72;
#X text 215 28 Bug: certain combos of M and T give artifacts.;
#X obj 314 281 tabwrite~ \$0-scope;
#X msg 314 252 bang;
#X obj 358 254 metro 100;
#X obj 358 233 tgl 15 0 empty empty empty 17 7 0 10 -262144 -1 -1 1
1;
#X obj 225 353 dac~;
#X obj 228 324 *~ 0;
#X obj 268 324 dbtorms;
#X obj 271 304 hsl 128 15 0 100 0 0 empty empty empty -2 -8 0 10 -262144
-1 -1 0 1;
#N canvas 0 22 450 300 (subpatch) 0;
#X array \$0-scope 882 float 0;
#X coords 0 1 881 -1 200 140 1;
#X restore 464 226 graph;
#X msg 464 397 \; pd dsp \$1;
#X obj 464 376 tgl 15 0 empty empty empty 17 7 0 10 -262144 -1 -1 1
1;
#X msg 222 56 84;
#X connect 1 0 21 0;
#X connect 1 0 26 0;
#X connect 2 0 1 0;
#X connect 3 0 2 0;
#X connect 4 0 12 0;
#X connect 5 0 11 0;
#X connect 6 0 1 2;
#X connect 7 0 16 0;
#X connect 8 0 7 0;
#X connect 9 0 17 0;
#X connect 10 0 9 0;
#X connect 11 0 15 0;
#X connect 12 0 1 1;
#X connect 13 0 3 0;
#X connect 14 0 4 0;
#X connect 15 0 1 3;
#X connect 16 0 13 0;
#X connect 17 0 14 0;
#X connect 18 0 8 0;
#X connect 19 0 10 0;
#X connect 22 0 21 0;
#X connect 23 0 21 0;
#X connect 24 0 23 0;
#X connect 26 0 25 0;
#X connect 26 0 25 1;
#X connect 27 0 26 1;
#X connect 28 0 27 0;
#X connect 31 0 30 0;
#X connect 32 0 10 0;
