#N canvas 68 73 770 547 10;
#X obj 57 -189 soundfiler;
#X obj 48 216 *~;
#X obj 159 156 hsl 128 15 0 127 0 0 empty empty empty -2 -8 0 10 -262144
-1 -1 0 1;
#X obj 50 268 dac~;
#X obj 96 199 / 127;
#X floatatom 96 -151 5 0 0 0 - - -, f 5;
#X obj 95 -127 s sampleSize;
#X obj 38 -76 expr 44100 / $f1;
#X floatatom 51 -45 5 0 0 0 - - -, f 5;
#X obj 52 16 phasor~;
#X floatatom -126 -128 5 0 0 0 - - -, f 5;
#X obj -90 -164 hsl 128 15 0.1 2 0 0 empty empty empty -2 -8 0 10 -262144
-1 -1 0 1;
#X obj 83 43 r sampleSize;
#X obj 52 64 *~;
#N canvas 0 22 450 278 (subpatch) 0;
#X array sample2 4e+06 float 2;
#X coords 0 1 4e+06 -1 200 140 1;
#X restore 406 61 graph;
#X msg -27 -232 read -resize sound/juno6.wav sample2;
#X msg -73 -264 read -resize sound/polyvox.wav sample2;
#X obj 40 -11 * 1;
#X floatatom -1 35 5 0 0 0 - - -, f 5;
#X obj -87 -44 f;
#X obj -54 -111 t b f;
#X msg -103 -200 1;
#X text -65 -192 pitch bend;
#X text 218 132 volume;
#X obj 52 124 tabread4~ sample2;
#X connect 0 0 5 0;
#X connect 0 0 7 0;
#X connect 1 0 3 0;
#X connect 1 0 3 1;
#X connect 2 0 4 0;
#X connect 4 0 1 1;
#X connect 5 0 6 0;
#X connect 7 0 8 0;
#X connect 7 0 17 0;
#X connect 7 0 19 1;
#X connect 9 0 13 0;
#X connect 11 0 10 0;
#X connect 11 0 20 0;
#X connect 12 0 13 1;
#X connect 13 0 24 0;
#X connect 15 0 0 0;
#X connect 16 0 0 0;
#X connect 17 0 9 0;
#X connect 17 0 18 0;
#X connect 19 0 17 0;
#X connect 20 0 19 0;
#X connect 20 1 17 1;
#X connect 21 0 11 0;
#X connect 24 0 1 0;
