#N canvas 10 0 1352 708 10;
#X obj 556 606 vcf~;
#X obj 792 516 sig~;
#X floatatom 791 495 5 0 0 0 - - -, f 5;
#X obj 809 406 hsl 85 15 0 127 0 0 empty empty empty -2 -8 0 10 -262130
-1 -1 0 1;
#X obj 790 471 mtof;
#X obj 737 386 hsl 50 10 0 127 0 0 empty empty empty -2 -8 0 10 -204800
-1 -1 1543 1;
#X obj 736 415 mtof;
#X obj 557 638 rev3~ 100 90 3000 20;
#X obj 479 403 hsl 50 10 0 127 0 0 empty empty empty -2 -8 0 10 -204800
-1 -1 1543 1;
#X floatatom 424 435 5 0 0 0 - - -, f 5;
#X obj 492 440 mtof;
#X obj 507 493 osc~;
#X obj 851 480 loadbang;
#X msg 812 542 1;
#X obj 607 401 hsl 50 10 0 127 0 0 empty empty empty -2 -8 0 10 -204800
-1 -1 1543 1;
#X floatatom 552 433 5 0 0 0 - - -, f 5;
#X obj 619 428 mtof;
#X obj 646 485 osc~;
#X obj 457 520 osc~;
#X obj 457 487 + 7;
#X obj 597 497 osc~;
#X obj 695 464 osc~;
#X obj 597 464 + 2;
#X obj 583 142 dac~;
#X obj 325 141 dac~;
#X obj 451 141 dac~;
#X obj 314 25 hsl 128 15 0 127 0 0 empty empty empty -2 -8 0 10 -258113
-1 -1 0 1;
#X obj 434 -146 vsl 10 50 0 10 0 0 empty empty bend 0 -9 0 10 -258113
-1 -1 1960 1;
#X floatatom 345 -28 5 0 0 0 - - -, f 5;
#X obj 225 -142 loadbang;
#X floatatom 286 -10 5 0 0 0 - - -, f 5;
#X msg 303 -118 4;
#X obj 583 105 *~ 0.5;
#X obj 451 104 *~ 0.6;
#X obj 325 104 *~ 0.6;
#X obj 794 585 vsl 15 85 0 127 0 0 empty empty empty 0 -9 0 10 -260097
-1 -1 0 1;
#X floatatom 753 712 5 0 0 0 - - -, f 5;
#X obj 642 821 dac~;
#X obj 646 786 *~;
#X obj 698 703 vline~;
#X msg 699 678 \$1 1;
#X floatatom 855 692 5 0 0 0 - - -, f 5;
#X msg 692 359 40;
#X obj 706 630 *~ 0.3;
#X obj 557 677 *~ 0.9;
#X obj 754 681 / 127;
#X obj 460 565 *~ 0.7;
#X obj 600 542 *~ 0.7;
#X obj 510 546 *~ 0.05;
#X obj 649 538 *~ 0.5;
#X obj 698 509 *~ 0.7;
#X obj 736 485 *~ 0.5;
#X obj 676 308 loadbang;
#X obj 695 431 + 3;
#X obj 737 456 osc~;
#X obj 691 143 dac~;
#X obj 691 106 *~ 0.5;
#X obj 807 143 dac~;
#X obj 807 106 *~ 0.5;
#X obj 917 146 dac~;
#X obj 917 109 *~ 0.5;
#X obj 499 -71 vsl 15 128 0 127 0 0 empty empty empty 0 -9 0 10 -262144
-1 -1 0 1;
#X obj 594 -84 vsl 15 128 0 127 0 0 empty empty empty 0 -9 0 10 -262144
-1 -1 0 1;
#X obj 707 -77 vsl 15 128 0 127 0 0 empty empty empty 0 -9 0 10 -262144
-1 -1 0 1;
#X obj 821 -83 vsl 15 128 0 127 0 0 empty empty empty 0 -9 0 10 -262144
-1 -1 0 1;
#X obj 957 -78 vsl 15 128 0 127 0 0 empty empty empty 0 -9 0 10 -262144
-1 -1 0 1;
#X msg 251 13 50;
#X text 691 177 F#;
#X text 810 169 G;
#X text 944 167 A;
#X text 580 172 B;
#X floatatom 882 53 5 0 0 0 - - -, f 5;
#X floatatom 1000 52 5 0 0 0 - - -, f 5;
#X floatatom 736 52 5 0 0 0 - - -, f 5;
#X floatatom 620 47 5 0 0 0 - - -, f 5;
#X msg 857 -116 0;
#X text 771 321 base note thing;
#X text 634 217 Order of events G B F# A;
#X floatatom 829 466 5 0 0 0 - - -, f 5;
#X text 449 217 F#(min) / AMaj;
#X obj 1574 161 dac~;
#X obj 1316 160 dac~;
#X obj 1442 160 dac~;
#X obj 1305 44 hsl 128 15 0 127 0 0 empty empty empty -2 -8 0 10 -258113
-1 -1 0 1;
#X obj 1426 -72 vsl 10 50 0 10 0 0 empty empty bend 0 -9 0 10 -258113
-1 -1 1960 1;
#X floatatom 1336 -9 5 0 0 0 - - -, f 5;
#X obj 1574 124 *~ 0.5;
#X obj 1442 123 *~ 0.6;
#X obj 1316 123 *~ 0.6;
#X obj 1682 162 dac~;
#X obj 1682 125 *~ 0.5;
#X obj 1798 162 dac~;
#X obj 1798 125 *~ 0.5;
#X obj 2006 194 dac~;
#X obj 1490 -52 vsl 15 128 0 127 0 0 empty empty empty 0 -9 0 10 -262144
-1 -1 0 1;
#X obj 1585 -65 vsl 15 128 0 127 0 0 empty empty empty 0 -9 0 10 -262144
-1 -1 0 1;
#X obj 1698 -58 vsl 15 128 0 127 0 0 empty empty empty 0 -9 0 10 -262144
-1 -1 0 1;
#X obj 1812 -64 vsl 15 128 0 127 0 0 empty empty empty 0 -9 0 10 -262144
-1 -1 0 1;
#X obj 1948 -59 vsl 15 128 0 127 0 0 empty empty empty 0 -9 0 10 -262144
-1 -1 0 1;
#X msg 1242 32 50;
#X floatatom 1873 72 5 0 0 0 - - -, f 5;
#X floatatom 1991 71 5 0 0 0 - - -, f 5;
#X floatatom 1727 71 5 0 0 0 - - -, f 5;
#X floatatom 1611 66 5 0 0 0 - - -, f 5;
#X msg 1841 -137 0;
#X obj 1269 -150 loadbang;
#X msg 1347 -126 4;
#X text 1571 191 F#;
#X text 1682 196 A;
#X text 1801 188 C#;
#X text 2033 215 E;
#X obj 1443 92 synth2 57 42 81;
#X obj 1575 93 synth2 42 54 30;
#X obj 808 75 synth2 91 67 79;
#X obj 452 73 synth2 57 42 81;
#X obj 326 73 synth2 62 38 76;
#X obj 692 75 synth2 78 66 54;
#X obj 918 78 synth2 81 69 57;
#X obj 584 74 synth2 59 71 83;
#X obj 1317 92 synth2 62 38 76;
#X obj 1683 94 synth2 45 57 33;
#X obj 1799 94 synth2 49 61 37;
#X obj 1909 97 synth2 52 64 40;
#X obj 1712 462 dac~;
#X obj 1712 425 *~ 0.5;
#X obj 1752 238 vsl 15 128 0 127 0 0 empty empty empty 0 -9 0 10 -262144
-1 -1 0 1;
#X floatatom 1795 368 5 0 0 0 - - -, f 5;
#X obj 1713 394 synth2 42 45 49 52;
#X obj 1865 463 dac~;
#X obj 1865 426 *~ 0.5;
#X obj 1905 239 vsl 15 128 0 127 0 0 empty empty empty 0 -9 0 10 -262144
-1 -1 0 1;
#X floatatom 1948 369 5 0 0 0 - - -, f 5;
#X text 1739 483 f# 3rd;
#X obj 1866 395 synth2 54 57 61 64;
#X text 1892 484 f# 4th;
#X obj 1229 668 dac~;
#X obj 1229 631 *~ 0.5;
#X obj 1337 669 dac~;
#X obj 1337 632 *~ 0.5;
#X obj 1453 669 dac~;
#X obj 1453 632 *~ 0.5;
#X obj 1563 672 dac~;
#X obj 1563 635 *~ 0.5;
#X obj 1240 442 vsl 15 128 0 127 0 0 empty empty empty 0 -9 0 10 -262144
-1 -1 0 1;
#X obj 1353 449 vsl 15 128 0 127 0 0 empty empty empty 0 -9 0 10 -262144
-1 -1 0 1;
#X obj 1467 443 vsl 15 128 0 127 0 0 empty empty empty 0 -9 0 10 -262144
-1 -1 0 1;
#X obj 1603 448 vsl 15 128 0 127 0 0 empty empty empty 0 -9 0 10 -262144
-1 -1 0 1;
#X floatatom 1528 579 5 0 0 0 - - -, f 5;
#X floatatom 1646 578 5 0 0 0 - - -, f 5;
#X floatatom 1382 578 5 0 0 0 - - -, f 5;
#X floatatom 1266 573 5 0 0 0 - - -, f 5;
#X msg 1503 410 0;
#X obj 2115 735 dac~;
#X obj 2115 698 *~ 0.5;
#X obj 2155 511 vsl 15 128 0 127 0 0 empty empty empty 0 -9 0 10 -262144
-1 -1 0 1;
#X floatatom 2198 641 5 0 0 0 - - -, f 5;
#X obj 2116 667 synth2 57 48 52 51;
#X obj 2270 732 dac~;
#X obj 2270 695 *~ 0.5;
#X obj 2310 508 vsl 15 128 0 127 0 0 empty empty empty 0 -9 0 10 -262144
-1 -1 0 1;
#X floatatom 2265 556 5 0 0 0 - - -, f 5;
#X obj 2271 664 synth2 57 48 52;
#X text 1156 183 F-Sharp 2nd: 30 \, 33 \, 37 \, 40 F#;
#X text 1160 200 F# 3rd/4th: F# 42 \, A 45 \, C# 49 E 52;
#X text 1154 262 D Major 7th D F# A C#;
#X obj 1701 750 dac~;
#X obj 1701 713 *~ 0.5;
#X obj 1741 526 vsl 15 128 0 127 0 0 empty empty empty 0 -9 0 10 -262144
-1 -1 0 1;
#X text 1737 764 3rd Amaj + D#;
#X obj 1702 682 synth2 45 48 52 51;
#X obj 1825 746 dac~;
#X obj 1825 709 *~ 0.5;
#X obj 1865 522 vsl 15 128 0 127 0 0 empty empty empty 0 -9 0 10 -262144
-1 -1 0 1;
#X floatatom 1908 652 5 0 0 0 - - -, f 5;
#X obj 1826 678 synth2 45 48 52;
#X text 2170 763 Amaj 1st inversion;
#X text 1157 219 f# scale F#42 \, G# 44 \, A 45 \, B 47 \, C# 49 \,
D 50 \, E 52 \, F# 54;
#X obj 1309 1046 vcf~;
#X obj 1310 1078 rev3~ 100 90 3000 20;
#X obj 1547 1025 vsl 15 85 0 127 0 0 empty empty empty 0 -9 0 10 -260097
-1 -1 0 1;
#X floatatom 1506 1152 5 0 0 0 - - -, f 5;
#X obj 1374 1173 dac~;
#X obj 1378 1138 *~;
#X obj 1451 1143 vline~;
#X msg 1452 1118 \$1 1;
#X floatatom 1608 1132 5 0 0 0 - - -, f 5;
#X obj 1310 1117 *~ 0.9;
#X obj 1507 1121 / 127;
#X obj 1303 845 hsl 50 10 0 127 0 0 empty empty empty -2 -8 0 10 -204800
-1 -1 0 1;
#X floatatom 1248 877 5 0 0 0 - - -, f 5;
#X obj 1307 866 mtof;
#X obj 1226 926 osc~;
#X obj 1191 927 osc~;
#X obj 1469 989 sig~;
#X floatatom 1468 968 5 0 0 0 - - -, f 5;
#X obj 1486 879 hsl 85 15 0 127 0 0 empty empty empty -2 -8 0 10 -262130
-1 -1 0 1;
#X obj 1467 944 mtof;
#X obj 1528 953 loadbang;
#X msg 1489 1015 1;
#X floatatom 1506 939 5 0 0 0 - - -, f 5;
#X obj 1206 907 + 0;
#X msg 1198 789 42;
#X msg 1240 786 44;
#X msg 1282 788 45;
#X msg 1322 781 47;
#X msg 1372 785 49;
#X msg 1423 782 50;
#X msg 1466 782 52;
#X msg 1509 782 54;
#X text 1184 744 f# scale F#42 \, G# 44 \, A 45 \, B 47 \, C# 49 \,
D 50 \, E 52 \, F# 54;
#X obj 1462 1070 *~ 0.9;
#X obj 1894 1167 vcf~;
#X obj 1895 1199 rev3~ 100 90 3000 20;
#X obj 2132 1146 vsl 15 85 0 127 0 0 empty empty empty 0 -9 0 10 -260097
-1 -1 0 1;
#X floatatom 2091 1273 5 0 0 0 - - -, f 5;
#X obj 1959 1294 dac~;
#X obj 1963 1259 *~;
#X obj 2036 1264 vline~;
#X msg 2037 1239 \$1 1;
#X floatatom 2193 1253 5 0 0 0 - - -, f 5;
#X obj 1895 1238 *~ 0.9;
#X obj 2092 1242 / 127;
#X obj 1824 918 hsl 50 10 0 127 0 0 empty empty empty -2 -8 0 10 -204800
-1 -1 0 1;
#X floatatom 1769 950 5 0 0 0 - - -, f 5;
#X obj 1837 955 mtof;
#X obj 1825 1016 osc~;
#X obj 1791 1034 osc~;
#X obj 2037 1130 sig~;
#X floatatom 2036 1109 5 0 0 0 - - -, f 5;
#X obj 2054 1020 hsl 85 15 0 127 0 0 empty empty empty -2 -8 0 10 -262130
-1 -1 0 1;
#X obj 2035 1085 mtof;
#X obj 2096 1094 loadbang;
#X msg 2057 1156 1;
#X floatatom 2074 1080 5 0 0 0 - - -, f 5;
#X obj 1792 1008 + 0;
#X obj 2047 1191 *~ 0.9;
#X text 1705 820 A 45 \, B 47 \, C♯49 \, D 50 \, E 52 \, F♯ 54
\, G♯ 56 A 58;
#X msg 1719 862 45;
#X msg 1761 859 47;
#X msg 1803 861 49;
#X msg 1843 854 50;
#X msg 1893 858 52;
#X msg 1944 855 54;
#X msg 1987 855 56;
#X msg 2030 855 58;
#X obj 1230 600 synth2 45 57 33;
#X obj 1338 601 synth2 48 60 36;
#X obj 1454 601 synth2 52 64 40;
#X obj 1564 604 synth2 51 63 39;
#X text 1344 695 3rd Amaj + D#;
#X text 1154 238 A Maj 1 a 33 C# 48 e 52 (D# 51);
#X obj 2173 434 dac~;
#X obj 2173 397 *~ 0.5;
#X obj 2213 210 vsl 15 128 0 127 0 0 empty empty empty 0 -9 0 10 -262144
-1 -1 0 1;
#X obj 2174 366 synth2 62 66 69 73;
#X text 2154 474 D Major 7 in 5th D F# A C#;
#X obj 1955 755 dac~;
#X obj 1955 718 *~ 0.5;
#X obj 1995 531 vsl 15 128 0 127 0 0 empty empty empty 0 -9 0 10 -262144
-1 -1 0 1;
#X floatatom 2038 661 5 0 0 0 - - -, f 5;
#X obj 1956 687 synth2 57 60 64;
#X text 1966 791 Amaj 4th;
#X text 1858 781 Amaj3rd;
#X obj 1911 1011 osc~;
#X obj 1877 1029 osc~;
#X obj 1878 1003 + 0;
#X obj 1996 1014 osc~;
#X obj 1962 1032 osc~;
#X obj 1963 1006 + 0;
#X obj 1305 920 osc~;
#X obj 1271 938 osc~;
#X obj 1272 912 + 0;
#X obj 1390 923 osc~;
#X obj 1356 941 osc~;
#X obj 1357 915 + 0;
#X obj 1176 948 *~ 0.6;
#X obj 1262 970 *~ 0.6;
#X obj 1328 965 *~ 0.6;
#X obj 1792 1059 *~ 0.6;
#X obj 1878 1054 *~ 0.6;
#X obj 1910 1032 *~ 0.4;
#X obj 1934 1056 *~ 0.6;
#X obj 1824 1037 *~ 0.5;
#X obj 1995 1035 *~ 0.5;
#X obj 1389 944 *~ 0.4;
#X obj 1304 941 *~ 0.5;
#X obj 1219 948 *~ 0.5;
#X obj 1963 -142 bng 15 250 50 0 empty empty empty 17 7 0 10 -262144
-1 -1;
#X obj 1969 -110 35 \, 0 1000;
#X obj 1988 -65 line;
#X obj 2006 157 *~;
#X obj 2004 7 / 127;
#X obj 2060 42 \$1 1;
#X obj 2083 105 vline~;
#X obj 2291 439 dac~;
#X obj 2291 402 *~ 0.5;
#X obj 2331 215 vsl 15 128 0 127 0 0 empty empty empty 0 -9 0 10 -262144
-1 -1 0 1;
#X obj 2292 371 synth2 50 54 55 61;
#X obj 2413 436 dac~;
#X obj 2453 212 vsl 15 128 0 127 0 0 empty empty empty 0 -9 0 10 -262144
-1 -1 0 1;
#X obj 2414 368 synth2 38 42 43 49;
#X obj 2416 139 metro 2000;
#X obj 2414 80 tgl 15 0 empty empty empty 17 7 0 10 -262144 -1 -1 0
1;
#X obj 2413 21 bng 15 250 50 0 empty empty empty 17 7 0 10 -262144
-1 -1;
#X obj 2476 -81 bng 15 250 50 0 empty empty empty 17 7 0 10 -262144
-1 -1;
#X obj 2509 183 35 \, 0 1000;
#X obj 2511 206 line;
#X obj 2512 231 / 127;
#X obj 2513 256 \$1 1;
#X obj 2512 291 vline~;
#X obj 2413 399 *~;
#X connect 0 0 7 0;
#X connect 0 0 43 0;
#X connect 1 0 0 1;
#X connect 2 0 1 0;
#X connect 3 0 4 0;
#X connect 3 0 78 0;
#X connect 4 0 2 0;
#X connect 5 0 6 0;
#X connect 6 0 53 0;
#X connect 6 0 54 0;
#X connect 7 0 44 0;
#X connect 8 0 9 0;
#X connect 8 0 10 0;
#X connect 10 0 11 0;
#X connect 10 0 19 0;
#X connect 11 0 48 0;
#X connect 12 0 13 0;
#X connect 13 0 0 2;
#X connect 14 0 15 0;
#X connect 14 0 16 0;
#X connect 16 0 17 0;
#X connect 16 0 22 0;
#X connect 17 0 49 0;
#X connect 18 0 46 0;
#X connect 19 0 18 0;
#X connect 20 0 47 0;
#X connect 21 0 50 0;
#X connect 22 0 20 0;
#X connect 26 0 28 0;
#X connect 26 0 115 0;
#X connect 27 0 30 0;
#X connect 27 0 114 1;
#X connect 27 0 115 1;
#X connect 29 0 31 0;
#X connect 31 0 27 0;
#X connect 32 0 23 0;
#X connect 32 0 23 1;
#X connect 33 0 25 0;
#X connect 33 0 25 1;
#X connect 34 0 24 0;
#X connect 34 0 24 1;
#X connect 35 0 41 0;
#X connect 35 0 45 0;
#X connect 38 0 37 0;
#X connect 38 0 37 1;
#X connect 39 0 38 1;
#X connect 40 0 39 0;
#X connect 42 0 5 0;
#X connect 42 0 14 0;
#X connect 42 0 8 0;
#X connect 43 0 38 0;
#X connect 44 0 38 0;
#X connect 45 0 36 0;
#X connect 45 0 40 0;
#X connect 46 0 0 0;
#X connect 47 0 0 0;
#X connect 48 0 0 0;
#X connect 49 0 0 0;
#X connect 50 0 0 0;
#X connect 51 0 0 0;
#X connect 52 0 42 0;
#X connect 53 0 21 0;
#X connect 54 0 51 0;
#X connect 56 0 55 0;
#X connect 56 0 55 1;
#X connect 58 0 57 0;
#X connect 58 0 57 1;
#X connect 60 0 59 0;
#X connect 60 0 59 1;
#X connect 61 0 114 0;
#X connect 62 0 74 0;
#X connect 62 0 118 0;
#X connect 63 0 73 0;
#X connect 63 0 116 0;
#X connect 64 0 71 0;
#X connect 64 0 113 0;
#X connect 65 0 72 0;
#X connect 65 0 117 0;
#X connect 75 0 64 0;
#X connect 75 0 65 0;
#X connect 75 0 63 0;
#X connect 75 0 62 0;
#X connect 83 0 85 0;
#X connect 83 0 119 0;
#X connect 84 0 111 1;
#X connect 84 0 119 1;
#X connect 86 0 80 0;
#X connect 86 0 80 1;
#X connect 87 0 82 0;
#X connect 87 0 82 1;
#X connect 88 0 81 0;
#X connect 88 0 81 1;
#X connect 90 0 89 0;
#X connect 90 0 89 1;
#X connect 92 0 91 0;
#X connect 92 0 91 1;
#X connect 94 0 111 0;
#X connect 95 0 103 0;
#X connect 95 0 112 1;
#X connect 96 0 102 0;
#X connect 96 0 120 0;
#X connect 97 0 100 0;
#X connect 97 0 121 0;
#X connect 98 0 101 0;
#X connect 98 0 122 0;
#X connect 104 0 97 0;
#X connect 104 0 98 0;
#X connect 104 0 96 0;
#X connect 104 0 95 0;
#X connect 105 0 106 0;
#X connect 106 0 84 0;
#X connect 111 0 87 0;
#X connect 112 0 86 0;
#X connect 113 0 58 0;
#X connect 114 0 33 0;
#X connect 115 0 34 0;
#X connect 116 0 56 0;
#X connect 117 0 60 0;
#X connect 118 0 32 0;
#X connect 119 0 88 0;
#X connect 120 0 90 0;
#X connect 121 0 92 0;
#X connect 122 0 290 0;
#X connect 124 0 123 0;
#X connect 124 0 123 1;
#X connect 125 0 126 0;
#X connect 125 0 127 0;
#X connect 127 0 124 0;
#X connect 129 0 128 0;
#X connect 129 0 128 1;
#X connect 130 0 131 0;
#X connect 130 0 133 0;
#X connect 133 0 129 0;
#X connect 136 0 135 0;
#X connect 136 0 135 1;
#X connect 138 0 137 0;
#X connect 138 0 137 1;
#X connect 140 0 139 0;
#X connect 140 0 139 1;
#X connect 142 0 141 0;
#X connect 142 0 141 1;
#X connect 143 0 150 0;
#X connect 143 0 245 0;
#X connect 144 0 149 0;
#X connect 144 0 246 0;
#X connect 145 0 147 0;
#X connect 145 0 247 0;
#X connect 146 0 148 0;
#X connect 146 0 248 0;
#X connect 151 0 145 0;
#X connect 151 0 146 0;
#X connect 151 0 144 0;
#X connect 151 0 143 0;
#X connect 153 0 152 0;
#X connect 153 0 152 1;
#X connect 154 0 155 0;
#X connect 154 0 156 0;
#X connect 156 0 153 0;
#X connect 158 0 157 0;
#X connect 158 0 157 1;
#X connect 159 0 160 0;
#X connect 159 0 161 0;
#X connect 161 0 158 0;
#X connect 166 0 165 0;
#X connect 166 0 165 1;
#X connect 167 0 169 0;
#X connect 169 0 166 0;
#X connect 171 0 170 0;
#X connect 171 0 170 1;
#X connect 172 0 173 0;
#X connect 172 0 174 0;
#X connect 174 0 171 0;
#X connect 177 0 178 0;
#X connect 177 0 210 0;
#X connect 178 0 186 0;
#X connect 179 0 185 0;
#X connect 179 0 187 0;
#X connect 182 0 181 0;
#X connect 182 0 181 1;
#X connect 183 0 182 1;
#X connect 184 0 183 0;
#X connect 186 0 182 0;
#X connect 187 0 180 0;
#X connect 187 0 184 0;
#X connect 188 0 189 0;
#X connect 188 0 190 0;
#X connect 190 0 191 0;
#X connect 190 0 200 0;
#X connect 190 0 271 0;
#X connect 190 0 269 0;
#X connect 190 0 274 0;
#X connect 190 0 272 0;
#X connect 191 0 286 0;
#X connect 192 0 275 0;
#X connect 193 0 177 1;
#X connect 194 0 193 0;
#X connect 195 0 196 0;
#X connect 195 0 199 0;
#X connect 196 0 194 0;
#X connect 197 0 198 0;
#X connect 198 0 177 2;
#X connect 200 0 192 0;
#X connect 201 0 188 0;
#X connect 202 0 188 0;
#X connect 203 0 188 0;
#X connect 204 0 188 0;
#X connect 205 0 188 0;
#X connect 206 0 188 0;
#X connect 207 0 188 0;
#X connect 208 0 188 0;
#X connect 210 0 182 0;
#X connect 211 0 212 0;
#X connect 211 0 235 0;
#X connect 212 0 220 0;
#X connect 213 0 219 0;
#X connect 213 0 221 0;
#X connect 216 0 215 0;
#X connect 216 0 215 1;
#X connect 217 0 216 1;
#X connect 218 0 217 0;
#X connect 220 0 216 0;
#X connect 221 0 214 0;
#X connect 221 0 218 0;
#X connect 222 0 223 0;
#X connect 222 0 224 0;
#X connect 224 0 225 0;
#X connect 224 0 234 0;
#X connect 224 0 265 0;
#X connect 224 0 263 0;
#X connect 224 0 268 0;
#X connect 224 0 266 0;
#X connect 225 0 282 0;
#X connect 226 0 278 0;
#X connect 227 0 211 1;
#X connect 228 0 227 0;
#X connect 229 0 230 0;
#X connect 229 0 233 0;
#X connect 230 0 228 0;
#X connect 231 0 232 0;
#X connect 232 0 211 2;
#X connect 234 0 226 0;
#X connect 235 0 216 0;
#X connect 237 0 222 0;
#X connect 238 0 222 0;
#X connect 239 0 222 0;
#X connect 240 0 222 0;
#X connect 241 0 222 0;
#X connect 242 0 222 0;
#X connect 243 0 222 0;
#X connect 244 0 222 0;
#X connect 245 0 136 0;
#X connect 246 0 138 0;
#X connect 247 0 140 0;
#X connect 248 0 142 0;
#X connect 252 0 251 0;
#X connect 252 0 251 1;
#X connect 253 0 254 0;
#X connect 254 0 252 0;
#X connect 257 0 256 0;
#X connect 257 0 256 1;
#X connect 258 0 259 0;
#X connect 258 0 260 0;
#X connect 260 0 257 0;
#X connect 263 0 280 0;
#X connect 264 0 279 0;
#X connect 265 0 264 0;
#X connect 266 0 283 0;
#X connect 267 0 281 0;
#X connect 268 0 267 0;
#X connect 269 0 285 0;
#X connect 270 0 276 0;
#X connect 271 0 270 0;
#X connect 272 0 284 0;
#X connect 273 0 277 0;
#X connect 274 0 273 0;
#X connect 275 0 177 0;
#X connect 276 0 177 0;
#X connect 277 0 177 0;
#X connect 278 0 211 0;
#X connect 279 0 211 0;
#X connect 280 0 211 0;
#X connect 281 0 211 0;
#X connect 282 0 211 0;
#X connect 283 0 211 0;
#X connect 284 0 177 0;
#X connect 285 0 177 0;
#X connect 286 0 177 0;
#X connect 287 0 288 0;
#X connect 288 0 289 0;
#X connect 289 0 98 0;
#X connect 289 0 291 0;
#X connect 290 0 93 0;
#X connect 290 0 93 1;
#X connect 291 0 292 0;
#X connect 292 0 293 0;
#X connect 293 0 290 1;
#X connect 295 0 294 0;
#X connect 295 0 294 1;
#X connect 296 0 297 0;
#X connect 297 0 295 0;
#X connect 299 0 300 0;
#X connect 300 0 310 0;
#X connect 301 0 299 0;
#X connect 301 0 305 0;
#X connect 302 0 301 0;
#X connect 303 0 302 0;
#X connect 305 0 306 0;
#X connect 306 0 307 0;
#X connect 306 0 299 0;
#X connect 307 0 308 0;
#X connect 308 0 309 0;
#X connect 309 0 310 1;
#X connect 310 0 298 0;
#X connect 310 0 298 1;
