#N canvas 57 47 861 712 10;
#X obj 281 421 vcf~;
#X obj 544 461 sig~;
#X floatatom 584 412 5 0 0 0 - - -, f 5;
#X obj 614 319 mtof;
#X obj 304 475 rev3~ 100 90 3000 20;
#X obj 357 505 *~ 0.5;
#X obj 535 520 *~ 0.5;
#X obj 404 346 inlet;
#X obj 425 734 outlet~;
#X obj 27 261 osc~;
#X obj 53 203 mtof;
#X obj 35 167 f \$1;
#X obj 21 105 loadbang;
#X obj 151 192 osc~;
#X obj 198 132 mtof;
#X obj 207 54 loadbang;
#X obj 354 221 osc~;
#X obj 352 171 mtof;
#X obj 362 88 loadbang;
#X obj 205 96 f \$2;
#X obj 359 135 f \$3;
#X obj 441 658 *~;
#X obj 678 371 / 127;
#X msg 651 468 \$1 1;
#X obj 602 529 vline~;
#X obj 86 254 osc~;
#X obj 215 196 osc~;
#X obj 590 47 inlet;
#X obj 196 -25 t b f;
#X obj 154 245 *~ 0.4;
#X obj 218 249 *~ 0.05;
#X obj 357 274 *~ 0.05;
#X obj 295 251 osc~;
#X obj 298 278 *~ 0.4;
#X obj 27 228 + 0;
#X obj 156 158 + 0;
#X obj 366 196 + 0;
#X obj 304 217 + 0;
#X obj 30 306 *~ 0.3;
#X obj 94 288 *~ 0.03;
#X obj 491 220 osc~;
#X obj 489 170 mtof;
#X obj 499 87 loadbang;
#X obj 496 134 f \$3;
#X obj 494 273 *~ 0.05;
#X obj 432 250 osc~;
#X obj 435 277 *~ 0.4;
#X obj 503 195 + 0;
#X obj 441 216 + 0;
#X connect 0 0 4 0;
#X connect 0 0 6 0;
#X connect 1 0 0 1;
#X connect 2 0 1 0;
#X connect 3 0 2 0;
#X connect 4 0 5 0;
#X connect 5 0 21 0;
#X connect 6 0 21 0;
#X connect 7 0 3 0;
#X connect 7 0 22 0;
#X connect 9 0 38 0;
#X connect 10 0 25 0;
#X connect 10 0 34 0;
#X connect 11 0 10 0;
#X connect 12 0 11 0;
#X connect 13 0 29 0;
#X connect 14 0 26 0;
#X connect 14 0 35 0;
#X connect 15 0 19 0;
#X connect 16 0 31 0;
#X connect 17 0 16 0;
#X connect 17 0 37 0;
#X connect 18 0 20 0;
#X connect 19 0 14 0;
#X connect 20 0 17 0;
#X connect 21 0 8 0;
#X connect 22 0 23 0;
#X connect 23 0 24 0;
#X connect 24 0 21 1;
#X connect 25 0 39 0;
#X connect 26 0 30 0;
#X connect 27 0 28 0;
#X connect 28 0 19 0;
#X connect 28 0 11 0;
#X connect 28 0 20 0;
#X connect 28 1 34 1;
#X connect 28 1 35 1;
#X connect 28 1 37 1;
#X connect 29 0 0 0;
#X connect 30 0 0 0;
#X connect 31 0 0 0;
#X connect 32 0 33 0;
#X connect 34 0 9 0;
#X connect 35 0 13 0;
#X connect 37 0 32 0;
#X connect 38 0 0 0;
#X connect 39 0 0 0;
#X connect 40 0 44 0;
#X connect 41 0 40 0;
#X connect 41 0 48 0;
#X connect 42 0 43 0;
#X connect 43 0 41 0;
#X connect 45 0 46 0;
#X connect 46 0 0 0;
#X connect 48 0 45 0;
